<?xml version="1.0" standalone="no"?>
<!DOCTYPE svg PUBLIC "-//W3C//DTD SVG 20010904//EN"
 "http://www.w3.org/TR/2001/REC-SVG-20010904/DTD/svg10.dtd">
<svg version="1.0" xmlns="http://www.w3.org/2000/svg"
 width="24.000000pt" height="27.000000pt" viewBox="0 0 24.000000 27.000000"
 preserveAspectRatio="xMidYMid meet">

<g transform="translate(0.000000,27.000000) scale(0.100000,-0.100000)"
fill="#000000" stroke="none">
<path d="M40 135 c0 -88 3 -125 10 -115 5 8 10 23 10 33 0 9 7 17 15 17 8 0
15 -8 15 -17 0 -15 2 -16 10 -3 6 8 9 53 9 99 -1 70 -4 82 -14 68 -16 -22 -35
-22 -35 1 0 9 -5 24 -10 32 -7 10 -10 -27 -10 -115z m50 30 c0 -16 -6 -25 -15
-25 -9 0 -15 9 -15 25 0 16 6 25 15 25 9 0 15 -9 15 -25z m0 -60 c0 -16 -6
-25 -15 -25 -9 0 -15 9 -15 25 0 16 6 25 15 25 9 0 15 -9 15 -25z"/>
<path d="M197 253 c-4 -3 -7 -17 -7 -30 0 -16 -6 -23 -20 -23 -12 0 -20 7 -20
17 0 9 -3 13 -7 9 -11 -10 -15 -95 -8 -145 5 -36 9 -42 16 -28 15 26 39 21 39
-7 0 -14 5 -28 10 -31 6 -4 10 38 10 119 0 69 -1 126 -3 126 -2 0 -7 -3 -10
-7z m-7 -88 c0 -18 -5 -25 -20 -25 -15 0 -20 7 -20 25 0 18 5 25 20 25 15 0
20 -7 20 -25z m0 -60 c0 -18 -5 -25 -20 -25 -15 0 -20 7 -20 25 0 18 5 25 20
25 15 0 20 -7 20 -25z"/>
</g>
</svg>
