<?xml version="1.0" standalone="no"?>
<!DOCTYPE svg PUBLIC "-//W3C//DTD SVG 20010904//EN"
 "http://www.w3.org/TR/2001/REC-SVG-20010904/DTD/svg10.dtd">
<svg version="1.0" xmlns="http://www.w3.org/2000/svg"
 width="24.000000pt" height="27.000000pt" viewBox="0 0 24.000000 27.000000"
 preserveAspectRatio="xMidYMid meet">

<g transform="translate(0.000000,27.000000) scale(0.100000,-0.100000)"
fill="#000000" stroke="none">
<path d="M40 128 c0 -83 3 -118 10 -108 5 8 10 23 10 33 0 11 8 17 25 17 24 0
25 2 25 65 0 63 -1 65 -25 65 -18 0 -25 5 -25 19 0 11 -4 23 -10 26 -6 4 -10
-37 -10 -117z m50 37 c0 -16 -6 -25 -15 -25 -9 0 -15 9 -15 25 0 16 6 25 15
25 9 0 15 -9 15 -25z m0 -60 c0 -16 -6 -25 -15 -25 -9 0 -15 9 -15 25 0 16 6
25 15 25 9 0 15 -9 15 -25z"/>
<path d="M190 226 c0 -19 -6 -25 -27 -28 -25 -3 -28 -7 -31 -47 -5 -69 3 -89
33 -83 21 4 25 1 25 -21 0 -14 5 -29 10 -32 6 -4 10 37 10 114 0 74 -4 121
-10 121 -5 0 -10 -11 -10 -24z m0 -61 c0 -18 -5 -25 -20 -25 -15 0 -20 7 -20
25 0 18 5 25 20 25 15 0 20 -7 20 -25z m0 -60 c0 -18 -5 -25 -20 -25 -15 0
-20 7 -20 25 0 18 5 25 20 25 15 0 20 -7 20 -25z"/>
</g>
</svg>
